<?xml version="1.0" standalone="no"?>
<!DOCTYPE svg PUBLIC "-//W3C//DTD SVG 20010904//EN"
 "http://www.w3.org/TR/2001/REC-SVG-20010904/DTD/svg10.dtd">
<svg version="1.0" xmlns="http://www.w3.org/2000/svg"
 width="256.000000pt" height="256.000000pt" viewBox="0 0 256.000000 256.000000"
 preserveAspectRatio="xMidYMid meet">
<metadata>
Created by potrace 1.14, written by Peter Selinger 2001-2017
</metadata>
<g transform="translate(0.000000,256.000000) scale(0.100000,-0.100000)"
fill="#000000" stroke="none">
<path d="M0 2076 l1 -484 29 8 c17 5 30 6 31 2 0 -4 5 4 10 17 9 23 10 24 31
5 12 -11 18 -14 15 -7 -4 7 1 14 13 18 11 3 20 13 20 20 0 9 6 12 15 9 8 -4
15 -1 15 6 0 6 5 8 11 5 6 -4 16 0 22 8 11 14 71 38 91 36 5 0 12 5 17 13 5 7
12 13 16 14 13 1 47 17 61 27 9 7 10 12 2 17 -8 5 -7 9 4 13 9 4 16 2 16 -4 0
-6 4 -8 9 -4 6 3 8 14 6 25 -5 27 4 25 15 -2 8 -21 9 -21 10 -3 0 17 2 18 11
5 9 -12 10 -11 6 8 -3 14 0 22 8 22 7 0 18 7 25 15 7 8 16 12 21 9 5 -3 9 2 9
11 0 9 5 13 10 10 6 -3 10 0 10 7 0 9 2 10 8 1 5 -8 13 -6 30 7 15 13 18 20
10 23 -10 4 -9 8 2 16 10 7 18 6 27 -1 8 -6 13 -7 13 -1 0 6 27 31 60 57 33
26 60 54 60 62 0 8 10 14 26 14 38 0 67 18 59 38 -5 13 -4 14 6 5 10 -10 15
-8 23 9 6 12 21 23 34 25 13 2 33 9 45 15 12 7 30 11 39 9 13 -1 16 2 12 13
-6 16 10 21 44 17 8 -1 22 5 32 14 12 11 20 13 25 6 8 -13 65 -15 65 -2 0 6
15 5 36 -1 21 -5 48 -8 60 -5 16 3 24 0 24 -9 0 -12 19 -19 42 -15 5 0 7 -5 5
-12 -1 -6 8 -12 20 -12 25 -1 44 -14 22 -16 -8 -1 -18 -1 -22 0 -5 1 -6 -2 -3
-7 3 -5 19 -7 37 -4 22 3 30 1 25 -7 -5 -7 1 -11 13 -11 12 0 21 -4 21 -8 0
-4 15 -16 33 -27 49 -29 173 -162 222 -237 9 -16 15 -28 12 -28 -2 0 -17 19
-32 43 -46 69 -155 177 -228 223 -66 43 -95 55 -82 33 4 -6 -3 -5 -14 3 -16 9
-24 10 -29 2 -4 -6 -18 -15 -32 -19 -51 -15 -126 -69 -172 -124 -26 -31 -46
-58 -45 -61 1 -3 -11 -19 -27 -35 -15 -15 -35 -44 -43 -64 -9 -20 -20 -39 -25
-42 -7 -4 -6 -15 2 -30 l13 -24 -25 23 -25 23 -15 -23 c-28 -44 -87 -183 -104
-249 l-17 -66 23 -34 23 -34 -32 30 c-27 25 -34 27 -42 15 -15 -24 -39 -113
-42 -157 -1 -22 -5 -39 -9 -36 -7 4 1 -57 8 -66 2 -2 -1 -10 -7 -18 -7 -7 -7
-13 -2 -13 14 0 3 -50 -11 -50 -6 0 -2 -7 8 -15 16 -12 17 -15 4 -15 -14 0
-13 -6 5 -40 12 -22 25 -40 28 -40 3 0 11 10 18 23 9 16 10 17 5 2 -4 -11 -10
-38 -14 -60 l-6 -40 -8 35 c-9 40 -51 110 -66 110 -30 0 10 -170 67 -289 35
-74 101 -150 187 -216 l38 -30 -43 -25 c-42 -24 -51 -25 -219 -25 -111 0 -187
4 -207 12 -44 16 -42 0 3 -31 33 -22 214 -86 288 -101 26 -6 28 -8 14 -21 -10
-11 -55 -20 -134 -28 -137 -14 -126 -19 87 -36 75 -6 160 -17 188 -25 28 -7
52 -13 54 -13 1 0 34 -9 72 -20 39 -12 111 -26 160 -32 50 -5 113 -13 140 -17
52 -8 198 -9 250 -2 17 2 33 8 37 14 5 6 8 4 8 -5 0 -12 2 -12 9 -2 6 11 53
14 210 15 132 1 201 5 201 12 0 6 3 7 8 0 6 -9 16 -12 57 -18 6 -1 9 4 8 11
-3 13 7 15 31 6 13 -5 14 -8 1 -20 -17 -18 -12 -35 18 -53 22 -14 22 -14 3 8
-15 16 -17 24 -8 33 9 9 12 9 12 -1 0 -7 5 -9 10 -6 6 4 8 10 6 13 -2 4 13 8
35 8 21 1 36 -2 33 -7 -3 -5 4 -9 14 -9 11 0 22 -9 25 -20 3 -11 11 -20 19
-19 10 0 10 2 0 6 -6 2 -12 10 -12 16 0 5 3 7 6 4 4 -3 14 -2 23 3 15 7 17 4
13 -23 -2 -23 -1 -28 6 -18 10 14 32 7 32 -10 0 -6 -4 -7 -10 -4 -5 3 -10 1
-10 -5 0 -6 -5 -8 -11 -4 -8 4 -8 0 0 -15 7 -11 10 -21 9 -22 -2 0 -11 -2 -21
-4 -24 -5 -34 -15 -16 -16 8 0 24 -2 37 -5 17 -3 21 -1 16 8 -6 10 -4 10 7 3
13 -9 31 -11 82 -6 16 1 17 20 17 249 0 163 -4 242 -10 232 -7 -11 -10 -11
-10 -2 0 7 -4 10 -10 7 -16 -10 -94 -13 -111 -4 -11 6 -21 4 -29 -6 -7 -8 -16
-12 -21 -9 -5 3 -9 0 -9 -5 0 -7 -24 -10 -60 -9 -33 1 -60 5 -60 10 0 4 5 8
11 8 5 0 7 5 3 11 -4 7 -12 2 -23 -13 -12 -17 -25 -23 -51 -23 -43 0 -73 -12
-64 -27 4 -7 3 -8 -4 -4 -6 4 -29 -2 -51 -14 -22 -11 -46 -20 -53 -20 -7 1 5
10 27 22 67 34 132 105 68 73 -89 -44 -355 -40 -430 6 l-36 23 22 15 c80 56
126 112 175 210 46 91 94 270 76 281 -5 3 -5 37 0 75 5 41 5 111 0 169 -10
103 -6 144 5 59 12 -85 23 -139 24 -115 1 24 16 30 24 10 3 -7 6 -2 6 11 1 24
1 24 23 -5 12 -16 23 -31 25 -34 2 -2 8 2 13 10 6 10 4 20 -6 31 -7 8 -14 19
-14 24 0 5 9 -1 21 -13 11 -12 17 -27 13 -33 -3 -6 9 -23 27 -39 19 -15 37
-24 40 -19 3 5 14 6 24 3 18 -7 18 -8 -1 -15 -18 -7 -18 -8 0 -8 13 -1 17 -6
13 -21 -5 -20 8 -29 15 -9 2 6 14 1 27 -10 13 -12 30 -21 37 -21 7 0 15 -8 19
-19 3 -10 11 -18 18 -18 33 1 48 -4 41 -14 -4 -7 0 -9 14 -5 11 4 23 2 27 -4
3 -6 -4 -10 -17 -11 -18 -1 -19 -2 -5 -6 11 -3 16 -11 13 -18 -3 -9 10 -20 35
-32 29 -13 38 -23 35 -36 -3 -11 -2 -16 1 -13 9 8 33 -21 33 -40 0 -13 3 -14
15 -4 13 10 15 9 15 -9 0 -21 19 -25 32 -6 4 6 8 0 8 -12 0 -13 8 -24 20 -28
20 -6 20 -7 -2 -26 -13 -12 -18 -18 -11 -15 6 4 13 1 15 -6 2 -6 10 -8 16 -4
9 5 12 223 12 912 l0 904 -1280 0 -1280 0 0 -484z m834 23 c-8 -14 -24 -10
-24 6 0 9 6 12 15 9 8 -4 12 -10 9 -15z m-449 -327 c-3 -3 -11 0 -18 7 -9 10
-8 11 6 5 10 -3 15 -9 12 -12z m1405 -46 c0 -12 -5 -7 -19 24 -11 24 -11 24 3
6 9 -11 16 -24 16 -30z m49 -116 c0 -8 -6 0 -14 19 -8 18 -15 36 -15 40 1 13
29 -45 29 -59z m18 -62 c-3 -8 -6 -5 -6 6 -1 11 2 17 5 13 3 -3 4 -12 1 -19z
m41 -148 l0 -25 -7 25 c-4 14 -11 43 -14 65 l-6 40 14 -40 c7 -22 13 -51 13
-65z m-1068 -360 c-6 -11 -13 -20 -16 -20 -2 0 0 9 6 20 6 11 13 20 16 20 2 0
0 -9 -6 -20z m1595 -570 c3 -6 -1 -7 -9 -4 -18 7 -21 14 -7 14 6 0 13 -4 16
-10z m-83 -293 c-12 -6 -25 -7 -29 -3 -11 10 18 25 35 18 13 -4 11 -8 -6 -15z
m62 -15 c3 -5 -1 -9 -9 -9 -8 0 -12 4 -9 9 3 4 7 8 9 8 2 0 6 -4 9 -8z"/>
<path d="M1094 2219 c-3 -6 -1 -16 5 -22 8 -8 11 -5 11 11 0 24 -5 28 -16 11z"/>
<path d="M723 1305 c0 -22 2 -30 4 -17 2 12 2 30 0 40 -3 9 -5 -1 -4 -23z"/>
<path d="M710 1227 c0 -20 3 -37 8 -37 9 0 8 57 -1 67 -4 3 -7 -10 -7 -30z"/>
<path d="M1765 612 c-47 -53 -54 -72 -27 -72 30 0 52 11 52 25 0 7 5 15 11 17
6 2 9 20 7 39 l-3 36 -40 -45z"/>
<path d="M1700 525 c0 -9 -6 -12 -15 -9 -8 4 -15 2 -15 -4 0 -16 35 -20 59 -8
l22 12 -25 12 c-21 9 -26 9 -26 -3z"/>
<path d="M2296 123 c20 -14 34 -14 37 2 1 6 -11 10 -27 11 -27 1 -28 0 -10
-13z"/>
<path d="M2400 50 c0 -5 5 -10 11 -10 5 0 7 5 4 10 -3 6 -8 10 -11 10 -2 0 -4
-4 -4 -10z"/>
</g>
</svg>
